<?xml version="1.0" encoding="utf-8"?>
<!-- Svg Vector Icons : http://www.onlinewebfonts.com/icon -->
<!DOCTYPE svg PUBLIC "-//W3C//DTD SVG 1.1//EN" "http://www.w3.org/Graphics/SVG/1.1/DTD/svg11.dtd">
<svg version="1.1" xmlns="http://www.w3.org/2000/svg" xmlns:xlink="http://www.w3.org/1999/xlink" x="0px" y="0px" viewBox="0 0 1000 1000" enable-background="new 0 0 1000 1000" xml:space="preserve">
<metadata> Svg Vector Icons : http://www.onlinewebfonts.com/icon </metadata>
<g><path d="M987,384.8c-8.1-24.9-35.1-54.5-117.8-54.5h-53.4c-87.4,0-184.1-70.2-211.1-153.4l-16.5-50.8c-25.5-78.7-62.1-95.2-88.2-95.2c-26.2,0-62.7,16.5-88.2,95.2l-16.5,50.8c-27,83.1-123.7,153.4-211.1,153.4h-53.4c-82.7,0-109.7,29.6-117.8,54.5c-8.1,24.8-3.7,64.7,63.2,113.3l43.2,31.4c70.7,51.4,107.6,165,80.6,248.2l-16.5,50.8c-16.8,51.6-16.1,90.4,2.1,115.4c11.8,16.3,30.2,25.2,51.7,25.2c0,0,0,0,0,0c25.3,0,55.2-12.4,89-36.9l43.2-31.4c34.3-24.9,80.6-38.6,130.5-38.6c49.9,0,96.2,13.7,130.5,38.6l43.2,31.5c62.5,45.4,115,47,140.7,11.7c18.2-25,18.9-63.8,2.1-115.4l-16.5-50.8c-27-83.2,9.9-196.8,80.6-248.2l43.2-31.4C990.7,449.5,995.1,409.6,987,384.8z"/></g>
</svg>