<?xml version="1.0" encoding="utf-8"?>
<!-- Svg Vector Icons : http://www.onlinewebfonts.com/icon -->
<!DOCTYPE svg PUBLIC "-//W3C//DTD SVG 1.1//EN" "http://www.w3.org/Graphics/SVG/1.1/DTD/svg11.dtd">
<svg version="1.1" xmlns="http://www.w3.org/2000/svg" xmlns:xlink="http://www.w3.org/1999/xlink" x="0px" y="0px" viewBox="0 0 1000 1000" enable-background="new 0 0 1000 1000" xml:space="preserve">
<metadata> Svg Vector Icons : http://www.onlinewebfonts.com/icon </metadata>
<g><path d="M237.3,969.1c-21.5,0-39.9-9-51.7-25.2c-18.2-25-18.9-63.8-2.1-115.4l16.5-50.8c27-83.1-9.9-196.8-80.6-248.2l-43.2-31.4C9.3,449.5,4.9,409.6,13,384.8c8.1-24.9,35.1-54.5,117.8-54.5h53.4c87.4,0,184.1-70.2,211.1-153.4l16.5-50.8c25.6-78.6,62.1-95.2,88.2-95.2s62.7,16.5,88.2,95.2l16.5,50.8c27,83.2,123.7,153.4,211.1,153.4h53.4c82.7,0,109.7,29.6,117.8,54.5c8.1,24.9,3.7,64.7-63.2,113.3l-43.2,31.4c-70.7,51.4-107.6,165-80.6,248.2l16.5,50.8c16.8,51.6,16.1,90.4-2.1,115.4c-25.7,35.3-78.2,33.7-140.7-11.7l-43.2-31.5c-34.3-24.9-80.6-38.6-130.5-38.6c-49.9,0-96.2,13.7-130.5,38.6l-43.2,31.4C292.6,956.7,262.6,969.1,237.3,969.1L237.3,969.1L237.3,969.1z M130.8,395.6c-38.5,0-54,8-56.4,10.8c1.3,0.6,9.1,16.2,40.2,38.9l43.2,31.4c93.1,67.7,139.9,211.8,104.4,321.2l-16.5,50.8c-11.9,36.6-9.1,53.7-7.1,56.9c7-1.8,24.6-8.2,49.4-26.2l43.2-31.4c45.4-32.9,105.3-51.1,168.9-51.1c63.5,0,123.5,18.1,168.9,51.1l43.2,31.4c24.8,18,42.4,24.4,50.6,24.4c1,0,1.4-0.1,1.4-0.1c-0.6-1.3,2.2-18.4-9.7-55l-16.5-50.8c-35.5-109.5,11.3-253.6,104.4-321.2l43.2-31.4c31.2-22.6,38.9-38.2,39.2-41.8c-1.7,0-16.7-7.8-55.4-7.8h-53.4c-115.1,0-237.7-89.1-273.2-198.5l-16.5-50.8c-11.9-36.7-24.3-48.9-27.7-50.3c-0.2,1.4-12.6,13.6-24.5,50.2l-16.5,50.8c-35.6,109.4-158.1,198.5-273.2,198.5L130.8,395.6L130.8,395.6z"/></g>
</svg>