<?xml version="1.0" encoding="utf-8"?>
<!-- Svg Vector Icons : http://www.onlinewebfonts.com/icon -->
<!DOCTYPE svg PUBLIC "-//W3C//DTD SVG 1.1//EN" "http://www.w3.org/Graphics/SVG/1.1/DTD/svg11.dtd">
<svg version="1.1" xmlns="http://www.w3.org/2000/svg" xmlns:xlink="http://www.w3.org/1999/xlink" x="0px" y="0px" viewBox="0 0 1000 1000" enable-background="new 0 0 1000 1000" xml:space="preserve">
<metadata> Svg Vector Icons : http://www.onlinewebfonts.com/icon </metadata>
<g><path d="M986.9,384.5c-8.3-25.5-35.8-56-119.5-56h-53.1c-86,0-181.1-69.1-207.6-150.8l-16.4-50.6c-25.9-79.7-63.3-96.4-90.2-96.4c-26.8,0-64.3,16.7-90.2,96.4l-16.4,50.5c-26.6,81.8-121.7,150.8-207.6,150.8h-53.1c-83.8,0-111.2,30.4-119.5,56c-8.3,25.5-4,66.3,63.8,115.5l43,31.3c69.6,50.5,105.9,162.3,79.3,244.1l-16.4,50.5c-17,52.2-16.1,91.6,2.4,117.1c26.4,36.4,80,35,143.4-11.1l43-31.2c33.2-24.1,80-38,128.3-38c48.4,0,95.1,13.8,128.3,37.9l43,31.3c34,24.7,64.3,37.2,90,37.2c22.2,0,41.2-9.3,53.5-26.1c18.6-25.6,19.4-64.9,2.5-117.1l-16.4-50.6c-26.6-81.7,9.7-193.5,79.3-244.1l43-31.3C990.8,450.8,995.2,410.1,986.9,384.5z M881.9,443.4l-43,31.3C745.5,542.6,698.5,687.2,734.2,797l16.4,50.5c9.8,30.2,9.2,45.4,8.2,51.4c-5.8-0.9-20.5-4.9-46.3-23.7l-43-31.3C623.9,811,563.8,792.8,500,792.8V102.5c4.4,4.3,13.8,16.2,23.6,46.3l16.4,50.6c35.7,109.8,158.7,199.2,274.2,199.2h53.1c31.7,0,46,5.2,51.4,8.1C916,412.2,907.6,424.8,881.9,443.4z"/></g>
</svg>